<mxfile host="app.diagrams.net" agent="Mozilla/5.0 (Windows NT 10.0; Win64; x64) AppleWebKit/537.36 (KHTML, like Gecko) Chrome/127.0.0.0 Safari/537.36 OPR/113.0.0.0" version="24.7.16">
  <diagram name="PÃ¡gina-1" id="w1eofvS61BW5VMOrBXQ5">
    <mxGraphModel dx="2220" dy="796" grid="1" gridSize="10" guides="1" tooltips="1" connect="1" arrows="1" fold="1" page="1" pageScale="1" pageWidth="827" pageHeight="1169" math="0" shadow="0">
      <root>
        <mxCell id="0" />
        <mxCell id="1" parent="0" />
        <mxCell id="kZn3B9g2lq4NXqstDyNO-1" value="" style="whiteSpace=wrap;html=1;aspect=fixed;" parent="1" vertex="1">
          <mxGeometry x="-280" y="60" width="740" height="740" as="geometry" />
        </mxCell>
        <mxCell id="kZn3B9g2lq4NXqstDyNO-2" style="edgeStyle=orthogonalEdgeStyle;rounded=0;orthogonalLoop=1;jettySize=auto;html=1;exitX=0.5;exitY=0.5;exitDx=0;exitDy=0;exitPerimeter=0;entryX=0;entryY=0.5;entryDx=0;entryDy=0;endArrow=none;endFill=0;" parent="1" source="kZn3B9g2lq4NXqstDyNO-4" target="kZn3B9g2lq4NXqstDyNO-11" edge="1">
          <mxGeometry relative="1" as="geometry">
            <Array as="points">
              <mxPoint x="-320" y="170" />
            </Array>
          </mxGeometry>
        </mxCell>
        <mxCell id="kZn3B9g2lq4NXqstDyNO-3" style="edgeStyle=orthogonalEdgeStyle;rounded=0;orthogonalLoop=1;jettySize=auto;html=1;exitX=0.5;exitY=0.5;exitDx=0;exitDy=0;exitPerimeter=0;entryX=0;entryY=0;entryDx=0;entryDy=0;endArrow=none;endFill=0;" parent="1" source="kZn3B9g2lq4NXqstDyNO-4" target="kZn3B9g2lq4NXqstDyNO-18" edge="1">
          <mxGeometry relative="1" as="geometry">
            <Array as="points">
              <mxPoint x="-320" y="170" />
              <mxPoint x="-220" y="170" />
              <mxPoint x="-220" y="307" />
            </Array>
          </mxGeometry>
        </mxCell>
        <mxCell id="kZn3B9g2lq4NXqstDyNO-4" value="Cliente" style="shape=umlActor;verticalLabelPosition=bottom;verticalAlign=top;html=1;outlineConnect=0;" parent="1" vertex="1">
          <mxGeometry x="-380" y="125" width="40" height="90" as="geometry" />
        </mxCell>
        <mxCell id="kZn3B9g2lq4NXqstDyNO-5" value="&lt;font style=&quot;font-size: 18px;&quot;&gt;LogoAli&lt;/font&gt;" style="text;html=1;align=center;verticalAlign=middle;whiteSpace=wrap;rounded=0;" parent="1" vertex="1">
          <mxGeometry x="-270" y="60" width="70" height="30" as="geometry" />
        </mxCell>
        <mxCell id="kZn3B9g2lq4NXqstDyNO-6" style="edgeStyle=orthogonalEdgeStyle;rounded=0;orthogonalLoop=1;jettySize=auto;html=1;exitX=0.5;exitY=0.5;exitDx=0;exitDy=0;exitPerimeter=0;entryX=0;entryY=1;entryDx=0;entryDy=0;endArrow=none;endFill=0;fillColor=#dae8fc;strokeColor=#6c8ebf;" parent="1" source="kZn3B9g2lq4NXqstDyNO-7" target="kZn3B9g2lq4NXqstDyNO-18" edge="1">
          <mxGeometry relative="1" as="geometry">
            <Array as="points">
              <mxPoint x="-360" y="363" />
            </Array>
          </mxGeometry>
        </mxCell>
        <mxCell id="kZn3B9g2lq4NXqstDyNO-7" value="Empresas de Hospedagem" style="shape=umlActor;verticalLabelPosition=bottom;verticalAlign=top;html=1;outlineConnect=0;fillColor=#dae8fc;strokeColor=#6c8ebf;" parent="1" vertex="1">
          <mxGeometry x="-380" y="320" width="40" height="90" as="geometry" />
        </mxCell>
        <mxCell id="kZn3B9g2lq4NXqstDyNO-8" style="edgeStyle=orthogonalEdgeStyle;rounded=0;orthogonalLoop=1;jettySize=auto;html=1;exitX=0.5;exitY=0.5;exitDx=0;exitDy=0;exitPerimeter=0;fillColor=#fff2cc;strokeColor=#d6b656;endArrow=none;endFill=0;" parent="1" source="kZn3B9g2lq4NXqstDyNO-10" target="kZn3B9g2lq4NXqstDyNO-36" edge="1">
          <mxGeometry relative="1" as="geometry">
            <Array as="points">
              <mxPoint x="-220" y="525" />
              <mxPoint x="-220" y="480" />
            </Array>
          </mxGeometry>
        </mxCell>
        <mxCell id="kZn3B9g2lq4NXqstDyNO-9" style="edgeStyle=orthogonalEdgeStyle;rounded=0;orthogonalLoop=1;jettySize=auto;html=1;exitX=0.5;exitY=0.5;exitDx=0;exitDy=0;exitPerimeter=0;entryX=0;entryY=0.5;entryDx=0;entryDy=0;fillColor=#fff2cc;strokeColor=#d6b656;endArrow=none;endFill=0;" parent="1" source="kZn3B9g2lq4NXqstDyNO-10" target="kZn3B9g2lq4NXqstDyNO-33" edge="1">
          <mxGeometry relative="1" as="geometry">
            <Array as="points">
              <mxPoint x="-220" y="525" />
              <mxPoint x="-220" y="750" />
            </Array>
          </mxGeometry>
        </mxCell>
        <mxCell id="kZn3B9g2lq4NXqstDyNO-10" value="Banco" style="shape=umlActor;verticalLabelPosition=bottom;verticalAlign=top;html=1;outlineConnect=0;fillColor=#fff2cc;strokeColor=#d6b656;" parent="1" vertex="1">
          <mxGeometry x="-380" y="480" width="40" height="90" as="geometry" />
        </mxCell>
        <mxCell id="kZn3B9g2lq4NXqstDyNO-11" value="" style="ellipse;whiteSpace=wrap;html=1;" parent="1" vertex="1">
          <mxGeometry x="-146" y="130" width="190" height="80" as="geometry" />
        </mxCell>
        <mxCell id="kZn3B9g2lq4NXqstDyNO-12" value="Pesquisar Disponibilidades" style="text;html=1;align=center;verticalAlign=middle;whiteSpace=wrap;rounded=0;" parent="1" vertex="1">
          <mxGeometry x="-128.5" y="155" width="155" height="30" as="geometry" />
        </mxCell>
        <mxCell id="kZn3B9g2lq4NXqstDyNO-13" style="edgeStyle=orthogonalEdgeStyle;rounded=0;orthogonalLoop=1;jettySize=auto;html=1;exitX=0;exitY=0.5;exitDx=0;exitDy=0;entryX=1;entryY=0;entryDx=0;entryDy=0;dashed=1;" parent="1" source="kZn3B9g2lq4NXqstDyNO-14" target="kZn3B9g2lq4NXqstDyNO-18" edge="1">
          <mxGeometry relative="1" as="geometry">
            <Array as="points">
              <mxPoint x="16" y="230" />
            </Array>
          </mxGeometry>
        </mxCell>
        <mxCell id="kZn3B9g2lq4NXqstDyNO-14" value="" style="ellipse;whiteSpace=wrap;html=1;" parent="1" vertex="1">
          <mxGeometry x="120" y="190" width="190" height="80" as="geometry" />
        </mxCell>
        <mxCell id="kZn3B9g2lq4NXqstDyNO-15" value="Fazer Login" style="text;html=1;align=center;verticalAlign=middle;whiteSpace=wrap;rounded=0;" parent="1" vertex="1">
          <mxGeometry x="155" y="215" width="120" height="30" as="geometry" />
        </mxCell>
        <mxCell id="kZn3B9g2lq4NXqstDyNO-16" style="edgeStyle=orthogonalEdgeStyle;rounded=0;orthogonalLoop=1;jettySize=auto;html=1;exitX=1;exitY=0.5;exitDx=0;exitDy=0;entryX=0;entryY=0.5;entryDx=0;entryDy=0;" parent="1" source="kZn3B9g2lq4NXqstDyNO-18" target="kZn3B9g2lq4NXqstDyNO-24" edge="1">
          <mxGeometry relative="1" as="geometry" />
        </mxCell>
        <mxCell id="kZn3B9g2lq4NXqstDyNO-17" style="edgeStyle=orthogonalEdgeStyle;rounded=0;orthogonalLoop=1;jettySize=auto;html=1;exitX=0;exitY=0.5;exitDx=0;exitDy=0;entryX=0;entryY=0.5;entryDx=0;entryDy=0;dashed=1;" parent="1" source="kZn3B9g2lq4NXqstDyNO-18" target="kZn3B9g2lq4NXqstDyNO-21" edge="1">
          <mxGeometry relative="1" as="geometry" />
        </mxCell>
        <mxCell id="kZn3B9g2lq4NXqstDyNO-18" value="" style="ellipse;whiteSpace=wrap;html=1;" parent="1" vertex="1">
          <mxGeometry x="-146" y="295" width="190" height="80" as="geometry" />
        </mxCell>
        <mxCell id="kZn3B9g2lq4NXqstDyNO-19" value="Realizar Reservas" style="text;html=1;align=center;verticalAlign=middle;whiteSpace=wrap;rounded=0;" parent="1" vertex="1">
          <mxGeometry x="-106" y="320" width="110" height="30" as="geometry" />
        </mxCell>
        <mxCell id="kZn3B9g2lq4NXqstDyNO-20" style="edgeStyle=orthogonalEdgeStyle;rounded=0;orthogonalLoop=1;jettySize=auto;html=1;entryX=0;entryY=0.5;entryDx=0;entryDy=0;" parent="1" source="kZn3B9g2lq4NXqstDyNO-21" target="kZn3B9g2lq4NXqstDyNO-29" edge="1">
          <mxGeometry relative="1" as="geometry" />
        </mxCell>
        <mxCell id="kZn3B9g2lq4NXqstDyNO-21" value="" style="ellipse;whiteSpace=wrap;html=1;" parent="1" vertex="1">
          <mxGeometry x="-146" y="580" width="190" height="80" as="geometry" />
        </mxCell>
        <mxCell id="kZn3B9g2lq4NXqstDyNO-22" value="Cancelar Reservas" style="text;html=1;align=center;verticalAlign=middle;whiteSpace=wrap;rounded=0;" parent="1" vertex="1">
          <mxGeometry x="-107.25" y="605" width="112.5" height="30" as="geometry" />
        </mxCell>
        <mxCell id="kZn3B9g2lq4NXqstDyNO-23" style="edgeStyle=orthogonalEdgeStyle;rounded=0;orthogonalLoop=1;jettySize=auto;html=1;exitX=0.5;exitY=1;exitDx=0;exitDy=0;entryX=0.5;entryY=0;entryDx=0;entryDy=0;" parent="1" source="kZn3B9g2lq4NXqstDyNO-24" target="kZn3B9g2lq4NXqstDyNO-27" edge="1">
          <mxGeometry relative="1" as="geometry" />
        </mxCell>
        <mxCell id="kZn3B9g2lq4NXqstDyNO-24" value="" style="ellipse;whiteSpace=wrap;html=1;" parent="1" vertex="1">
          <mxGeometry x="120" y="295" width="190" height="80" as="geometry" />
        </mxCell>
        <mxCell id="kZn3B9g2lq4NXqstDyNO-25" value="CheckIn" style="text;html=1;align=center;verticalAlign=middle;whiteSpace=wrap;rounded=0;" parent="1" vertex="1">
          <mxGeometry x="185" y="320" width="60" height="30" as="geometry" />
        </mxCell>
        <mxCell id="kZn3B9g2lq4NXqstDyNO-26" style="edgeStyle=orthogonalEdgeStyle;rounded=0;orthogonalLoop=1;jettySize=auto;html=1;exitX=0.5;exitY=1;exitDx=0;exitDy=0;entryX=0.5;entryY=0;entryDx=0;entryDy=0;" parent="1" source="kZn3B9g2lq4NXqstDyNO-27" target="kZn3B9g2lq4NXqstDyNO-29" edge="1">
          <mxGeometry relative="1" as="geometry" />
        </mxCell>
        <mxCell id="kZn3B9g2lq4NXqstDyNO-27" value="" style="ellipse;whiteSpace=wrap;html=1;" parent="1" vertex="1">
          <mxGeometry x="120" y="430" width="190" height="80" as="geometry" />
        </mxCell>
        <mxCell id="kZn3B9g2lq4NXqstDyNO-28" value="CheckOut" style="text;html=1;align=center;verticalAlign=middle;whiteSpace=wrap;rounded=0;" parent="1" vertex="1">
          <mxGeometry x="185" y="455" width="60" height="30" as="geometry" />
        </mxCell>
        <mxCell id="kZn3B9g2lq4NXqstDyNO-29" value="" style="ellipse;whiteSpace=wrap;html=1;" parent="1" vertex="1">
          <mxGeometry x="120" y="580" width="190" height="80" as="geometry" />
        </mxCell>
        <mxCell id="kZn3B9g2lq4NXqstDyNO-30" value="Avaliar ExperiÃªncia" style="text;html=1;align=center;verticalAlign=middle;whiteSpace=wrap;rounded=0;" parent="1" vertex="1">
          <mxGeometry x="160" y="605" width="110" height="30" as="geometry" />
        </mxCell>
        <mxCell id="kZn3B9g2lq4NXqstDyNO-31" value="&amp;lt;&amp;lt;include&amp;gt;&amp;gt;" style="text;html=1;align=center;verticalAlign=middle;whiteSpace=wrap;rounded=0;" parent="1" vertex="1">
          <mxGeometry x="22.75" y="230" width="60" height="30" as="geometry" />
        </mxCell>
        <mxCell id="kZn3B9g2lq4NXqstDyNO-32" style="edgeStyle=orthogonalEdgeStyle;rounded=0;orthogonalLoop=1;jettySize=auto;html=1;exitX=0.5;exitY=0;exitDx=0;exitDy=0;entryX=0.5;entryY=1;entryDx=0;entryDy=0;dashed=1;" parent="1" source="kZn3B9g2lq4NXqstDyNO-33" target="kZn3B9g2lq4NXqstDyNO-21" edge="1">
          <mxGeometry relative="1" as="geometry" />
        </mxCell>
        <mxCell id="kZn3B9g2lq4NXqstDyNO-33" value="" style="ellipse;whiteSpace=wrap;html=1;" parent="1" vertex="1">
          <mxGeometry x="-146" y="710" width="190" height="80" as="geometry" />
        </mxCell>
        <mxCell id="kZn3B9g2lq4NXqstDyNO-34" value="Estorno" style="text;html=1;align=center;verticalAlign=middle;whiteSpace=wrap;rounded=0;" parent="1" vertex="1">
          <mxGeometry x="-107.25" y="735" width="112.5" height="30" as="geometry" />
        </mxCell>
        <mxCell id="kZn3B9g2lq4NXqstDyNO-35" style="edgeStyle=orthogonalEdgeStyle;rounded=0;orthogonalLoop=1;jettySize=auto;html=1;exitX=0.5;exitY=0;exitDx=0;exitDy=0;entryX=0.5;entryY=1;entryDx=0;entryDy=0;dashed=1;" parent="1" source="kZn3B9g2lq4NXqstDyNO-36" target="kZn3B9g2lq4NXqstDyNO-18" edge="1">
          <mxGeometry relative="1" as="geometry" />
        </mxCell>
        <mxCell id="kZn3B9g2lq4NXqstDyNO-36" value="" style="ellipse;whiteSpace=wrap;html=1;" parent="1" vertex="1">
          <mxGeometry x="-146" y="440" width="190" height="80" as="geometry" />
        </mxCell>
        <mxCell id="kZn3B9g2lq4NXqstDyNO-37" value="TransaÃ§Ãµes Financeiras" style="text;html=1;align=center;verticalAlign=middle;whiteSpace=wrap;rounded=0;" parent="1" vertex="1">
          <mxGeometry x="-109.62" y="465" width="137.25" height="30" as="geometry" />
        </mxCell>
        <mxCell id="kZn3B9g2lq4NXqstDyNO-38" value="&amp;lt;&amp;lt;extend&amp;gt;&amp;gt;" style="text;html=1;align=center;verticalAlign=middle;whiteSpace=wrap;rounded=0;" parent="1" vertex="1">
          <mxGeometry x="-40" y="400" width="60" height="30" as="geometry" />
        </mxCell>
        <mxCell id="kZn3B9g2lq4NXqstDyNO-39" value="&amp;lt;&amp;lt;extend&amp;gt;&amp;gt;" style="text;html=1;align=center;verticalAlign=middle;whiteSpace=wrap;rounded=0;" parent="1" vertex="1">
          <mxGeometry x="-40" y="670" width="60" height="30" as="geometry" />
        </mxCell>
        <mxCell id="kZn3B9g2lq4NXqstDyNO-40" style="edgeStyle=orthogonalEdgeStyle;rounded=0;orthogonalLoop=1;jettySize=auto;html=1;exitX=1;exitY=0.5;exitDx=0;exitDy=0;entryX=1;entryY=0.5;entryDx=0;entryDy=0;dashed=1;" parent="1" source="kZn3B9g2lq4NXqstDyNO-41" target="kZn3B9g2lq4NXqstDyNO-14" edge="1">
          <mxGeometry relative="1" as="geometry" />
        </mxCell>
        <mxCell id="kZn3B9g2lq4NXqstDyNO-41" value="" style="ellipse;whiteSpace=wrap;html=1;" parent="1" vertex="1">
          <mxGeometry x="120" y="90" width="190" height="80" as="geometry" />
        </mxCell>
        <mxCell id="kZn3B9g2lq4NXqstDyNO-42" value="AfiliaÃ§Ã£o" style="text;html=1;align=center;verticalAlign=middle;whiteSpace=wrap;rounded=0;" parent="1" vertex="1">
          <mxGeometry x="155" y="115" width="120" height="30" as="geometry" />
        </mxCell>
        <mxCell id="kZn3B9g2lq4NXqstDyNO-43" value="&amp;lt;&amp;lt;extend&amp;gt;&amp;gt;" style="text;html=1;align=center;verticalAlign=middle;whiteSpace=wrap;rounded=0;" parent="1" vertex="1">
          <mxGeometry x="340" y="170" width="60" height="30" as="geometry" />
        </mxCell>
      </root>
    </mxGraphModel>
  </diagram>
</mxfile>
